<svg xmlns="http://www.w3.org/2000/svg" viewBox="0 0 170.08 170.08"><path fill="#13202f" d="M133.87,10.08a34.44,34.44,0,0,0-58.77,23V65.75a3.08,3.08,0,0,0,3.08,3.08H108c10.48,0,18.77-2.94,25.87-10A34.49,34.49,0,0,0,133.87,10.08Z"/><path fill="#f03748" d="M10.08,36.34a34.44,34.44,0,0,0,23,58.77H65.75A3.08,3.08,0,0,0,68.83,92V62.21c0-10.48-2.94-18.77-10-25.87A34.49,34.49,0,0,0,10.08,36.34Z"/><path fill="#f03748" d="M36.33,160A34.44,34.44,0,0,0,95.1,137V104.33A3.08,3.08,0,0,0,92,101.25H62.2c-10.48,0-18.76,2.94-25.87,10A34.49,34.49,0,0,0,36.33,160Z"/><path fill="#f03748" d="M160,133.76A34.42,34.42,0,0,0,137,75H104.32a3.07,3.07,0,0,0-3.07,3.07v29.82c0,10.48,2.93,18.77,10,25.87A34.49,34.49,0,0,0,160,133.76Z"/></svg>